<svg width="25" height="24" viewBox="0 0 25 24" fill="none" xmlns="http://www.w3.org/2000/svg">
<mask id="mask0_4_438" style="mask-type:alpha" maskUnits="userSpaceOnUse" x="0" y="0" width="25" height="24">
<rect x="0.833344" width="24" height="24" fill="#D9D9D9"/>
</mask>
<g mask="url(#mask0_4_438)">
<path d="M5.83334 22C5.28334 22 4.81251 21.8042 4.42084 21.4125C4.02918 21.0208 3.83334 20.55 3.83334 20V8C3.83334 7.45 4.02918 6.97917 4.42084 6.5875C4.81251 6.19583 5.28334 6 5.83334 6H7.83334C7.83334 4.61667 8.32084 3.4375 9.29584 2.4625C10.2708 1.4875 11.45 1 12.8333 1C14.2167 1 15.3958 1.4875 16.3708 2.4625C17.3458 3.4375 17.8333 4.61667 17.8333 6H19.8333C20.3833 6 20.8542 6.19583 21.2458 6.5875C21.6375 6.97917 21.8333 7.45 21.8333 8V20C21.8333 20.55 21.6375 21.0208 21.2458 21.4125C20.8542 21.8042 20.3833 22 19.8333 22H5.83334ZM5.83334 20H19.8333V8H5.83334V20ZM12.8333 14C14.2167 14 15.3958 13.5125 16.3708 12.5375C17.3458 11.5625 17.8333 10.3833 17.8333 9H15.8333C15.8333 9.83333 15.5417 10.5417 14.9583 11.125C14.375 11.7083 13.6667 12 12.8333 12C12 12 11.2917 11.7083 10.7083 11.125C10.125 10.5417 9.83334 9.83333 9.83334 9H7.83334C7.83334 10.3833 8.32084 11.5625 9.29584 12.5375C10.2708 13.5125 11.45 14 12.8333 14ZM9.83334 6H15.8333C15.8333 5.16667 15.5417 4.45833 14.9583 3.875C14.375 3.29167 13.6667 3 12.8333 3C12 3 11.2917 3.29167 10.7083 3.875C10.125 4.45833 9.83334 5.16667 9.83334 6Z" fill="white"/>
</g>
</svg>
