<svg width="25" height="24" viewBox="0 0 25 24" fill="none" xmlns="http://www.w3.org/2000/svg">
<mask id="mask0_4_432" style="mask-type:alpha" maskUnits="userSpaceOnUse" x="0" y="0" width="25" height="24">
<rect x="0.666672" width="24" height="24" fill="#D9D9D9"/>
</mask>
<g mask="url(#mask0_4_432)">
<path d="M12.6667 23V21H19.6667V20H15.6667V12H19.6667V11C19.6667 9.06667 18.9833 7.41667 17.6167 6.05C16.25 4.68333 14.6 4 12.6667 4C10.7333 4 9.08334 4.68333 7.71667 6.05C6.35001 7.41667 5.66667 9.06667 5.66667 11V12H9.66667V20H5.66667C5.11667 20 4.64584 19.8042 4.25417 19.4125C3.86251 19.0208 3.66667 18.55 3.66667 18V11C3.66667 9.76667 3.90417 8.60417 4.37917 7.5125C4.85417 6.42083 5.50001 5.46667 6.31667 4.65C7.13334 3.83333 8.08751 3.1875 9.17917 2.7125C10.2708 2.2375 11.4333 2 12.6667 2C13.9 2 15.0625 2.2375 16.1542 2.7125C17.2458 3.1875 18.2 3.83333 19.0167 4.65C19.8333 5.46667 20.4792 6.42083 20.9542 7.5125C21.4292 8.60417 21.6667 9.76667 21.6667 11V21C21.6667 21.55 21.4708 22.0208 21.0792 22.4125C20.6875 22.8042 20.2167 23 19.6667 23H12.6667ZM5.66667 18H7.66667V14H5.66667V18ZM17.6667 18H19.6667V14H17.6667V18Z" fill="white"/>
</g>
</svg>
