<svg width="375" height="42" viewBox="0 0 375 42" fill="none" xmlns="http://www.w3.org/2000/svg">
<rect width="375" height="42" fill="#023586"/>
<path d="M23.3092 26C22.9741 26 22.6343 25.9499 22.2899 25.8497C21.9455 25.7495 21.6197 25.5993 21.3125 25.3989C21.0146 25.1894 20.7493 24.9253 20.5166 24.6066C20.2839 24.2878 20.1117 23.9098 20 23.4727L21.3963 22.9262C21.5173 23.4089 21.736 23.8051 22.0525 24.1148C22.3783 24.4153 22.7926 24.5656 23.2952 24.5656C23.5465 24.5656 23.7839 24.5246 24.0073 24.4426C24.2307 24.3515 24.4215 24.2332 24.5798 24.0874C24.738 23.9326 24.8637 23.7505 24.9568 23.541C25.0499 23.3315 25.0964 23.0993 25.0964 22.8443C25.0964 22.5893 25.0499 22.357 24.9568 22.1475C24.873 21.929 24.752 21.7423 24.5938 21.5874C24.4355 21.4326 24.2447 21.3142 24.0213 21.2322C23.7979 21.1412 23.5559 21.0956 23.2952 21.0956C22.988 21.0956 22.7088 21.1639 22.4574 21.3005C22.2061 21.4281 21.9967 21.5965 21.8291 21.806L20.2932 21.1366L20.8657 16.4372H26.0738V17.8169H22.1642L21.8152 20.2486L21.8989 20.276C22.1037 20.1211 22.3411 19.9891 22.611 19.8798C22.881 19.7705 23.2114 19.7158 23.6024 19.7158C24.0027 19.7158 24.3843 19.7933 24.7473 19.9481C25.1197 20.0938 25.4455 20.3033 25.7247 20.5765C26.004 20.8497 26.2274 21.1776 26.3949 21.5601C26.5625 21.9426 26.6463 22.3661 26.6463 22.8306C26.6463 23.286 26.5625 23.7095 26.3949 24.1011C26.2274 24.4836 25.9947 24.816 25.6968 25.0984C25.3989 25.3807 25.0452 25.6038 24.6356 25.7678C24.2354 25.9226 23.7932 26 23.3092 26Z" fill="white"/>
<path d="M29.0682 25.8634C28.7703 25.8634 28.5143 25.7632 28.3002 25.5628C28.0954 25.3534 27.993 25.1029 27.993 24.8115C27.993 24.52 28.0954 24.2696 28.3002 24.0601C28.5143 23.8506 28.7703 23.7459 29.0682 23.7459C29.366 23.7459 29.622 23.8506 29.8361 24.0601C30.0502 24.2696 30.1573 24.52 30.1573 24.8115C30.1573 25.1029 30.0502 25.3534 29.8361 25.5628C29.622 25.7632 29.366 25.8634 29.0682 25.8634ZM29.0682 21.0683C28.7703 21.0683 28.5143 20.9681 28.3002 20.7678C28.0954 20.5583 27.993 20.3078 27.993 20.0164C27.993 19.725 28.0954 19.4791 28.3002 19.2787C28.5143 19.0692 28.7703 18.9645 29.0682 18.9645C29.366 18.9645 29.622 19.0692 29.8361 19.2787C30.0502 19.4791 30.1573 19.725 30.1573 20.0164C30.1573 20.3078 30.0502 20.5583 29.8361 20.7678C29.622 20.9681 29.366 21.0683 29.0682 21.0683Z" fill="white"/>
<path d="M33.7454 25.7814V18.2678L31.9721 19.0191L31.3857 17.7213L34.1922 16.4372H35.2952V25.7814H33.7454Z" fill="white"/>
<path d="M40.2422 26C39.9071 26 39.572 25.9545 39.2369 25.8634C38.9018 25.7723 38.5853 25.6311 38.2874 25.4399C37.9988 25.2395 37.7382 24.9891 37.5055 24.6885C37.2728 24.388 37.0959 24.0282 36.9749 23.6093L38.427 23.0219C38.5574 23.5137 38.7808 23.8916 39.0972 24.1557C39.4137 24.4199 39.7954 24.5519 40.2422 24.5519C40.4656 24.5519 40.6797 24.5155 40.8845 24.4426C41.0986 24.3698 41.2847 24.2696 41.443 24.1421C41.6012 24.0055 41.7269 23.8506 41.82 23.6776C41.9131 23.4954 41.9596 23.2951 41.9596 23.0765C41.9596 22.8579 41.9084 22.6576 41.806 22.4754C41.7129 22.2933 41.5826 22.1384 41.4151 22.0109C41.2475 21.8834 41.0474 21.7832 40.8147 21.7104C40.5913 21.6375 40.3492 21.6011 40.0886 21.6011H39.2648V20.194H40.0048C40.2282 20.194 40.433 20.1667 40.6192 20.112C40.8147 20.0483 40.9869 19.9617 41.1358 19.8525C41.2847 19.7432 41.4011 19.6066 41.4849 19.4426C41.5687 19.2696 41.6105 19.0738 41.6105 18.8552C41.6105 18.4818 41.4709 18.1903 41.1917 17.9809C40.9217 17.7623 40.5773 17.653 40.1584 17.653C39.9257 17.653 39.7209 17.6849 39.5441 17.7486C39.3765 17.8124 39.2322 17.8989 39.1112 18.0082C38.9902 18.1175 38.8878 18.2404 38.804 18.377C38.7296 18.5046 38.6691 18.6366 38.6225 18.7732L37.1983 18.1858C37.2728 17.9672 37.3891 17.7441 37.5474 17.5164C37.7056 17.2796 37.9058 17.0656 38.1478 16.8743C38.3898 16.6831 38.6737 16.5282 38.9995 16.4098C39.3346 16.2823 39.7209 16.2186 40.1584 16.2186C40.6052 16.2186 41.0148 16.2823 41.3871 16.4098C41.7595 16.5373 42.0806 16.7149 42.3506 16.9426C42.6205 17.1703 42.83 17.439 42.9789 17.7486C43.1278 18.0583 43.2023 18.3953 43.2023 18.7596C43.2023 19.0237 43.1651 19.265 43.0906 19.4836C43.0254 19.7022 42.9324 19.898 42.8113 20.071C42.6903 20.235 42.5554 20.3761 42.4064 20.4945C42.2575 20.6129 42.1039 20.7131 41.9457 20.7951V20.877C42.1597 20.9681 42.3645 21.0865 42.56 21.2322C42.7555 21.3689 42.923 21.5328 43.0627 21.724C43.2116 21.9153 43.328 22.1339 43.4117 22.3798C43.4955 22.6166 43.5374 22.8761 43.5374 23.1585C43.5374 23.5683 43.4536 23.9508 43.2861 24.306C43.1185 24.6521 42.8858 24.9526 42.5879 25.2077C42.2994 25.4536 41.955 25.6448 41.5547 25.7814C41.1544 25.9271 40.7169 26 40.2422 26Z" fill="white"/>
<path d="M48.1678 25.7814V16H51.6306C52.0774 16 52.4963 16.0729 52.8872 16.2186C53.2875 16.3643 53.6366 16.5692 53.9344 16.8333C54.2323 17.0974 54.465 17.4162 54.6326 17.7896C54.8094 18.1539 54.8979 18.5592 54.8979 19.0055C54.8979 19.4426 54.8094 19.8479 54.6326 20.2213C54.465 20.5856 54.2323 20.8998 53.9344 21.1639C53.6366 21.4281 53.2875 21.633 52.8872 21.7787C52.4963 21.9244 52.0774 21.9973 51.6306 21.9973H49.7456V25.7814H48.1678ZM51.6725 20.5219C51.9331 20.5219 52.1658 20.4809 52.3706 20.3989C52.5754 20.3078 52.7476 20.1894 52.8872 20.0437C53.0268 19.898 53.1339 19.7341 53.2084 19.5519C53.2828 19.3698 53.3201 19.1876 53.3201 19.0055C53.3201 18.8142 53.2828 18.6275 53.2084 18.4454C53.1339 18.2632 53.0268 18.1038 52.8872 17.9672C52.7476 17.8215 52.5754 17.7031 52.3706 17.612C52.1658 17.5209 51.9331 17.4754 51.6725 17.4754H49.7456V20.5219H51.6725Z" fill="white"/>
<path d="M56.24 16H57.8178L61.0851 21.5601H61.1689L64.4362 16H66V25.7814H64.4362V20.4672L64.52 18.8279H64.4362L61.5878 23.7049H60.6523L57.8178 18.8279H57.734L57.8178 20.4672V25.7814H56.24V16Z" fill="white"/>
<path fill-rule="evenodd" clip-rule="evenodd" d="M261.709 14.6639C261.976 14.3977 261.976 13.966 261.709 13.6997C261.443 13.4334 261.011 13.4334 260.745 13.6997L258.7 15.7452C258.433 16.0114 258.433 16.4431 258.7 16.7094C258.966 16.9757 259.398 16.9757 259.664 16.7094L261.709 14.6639ZM271.255 13.6997C270.989 13.4334 270.557 13.4334 270.291 13.6997C270.024 13.966 270.024 14.3977 270.291 14.6639L272.336 16.7094C272.602 16.9757 273.034 16.9757 273.3 16.7094C273.567 16.4431 273.567 16.0114 273.3 15.7452L271.255 13.6997ZM266 16.2273C262.988 16.2273 260.545 18.6694 260.545 21.6819C260.545 24.6943 262.988 27.1364 266 27.1364C269.012 27.1364 271.455 24.6943 271.455 21.6819C271.455 18.6694 269.012 16.2273 266 16.2273ZM259.182 21.6819C259.182 17.9163 262.234 14.8637 266 14.8637C269.766 14.8637 272.818 17.9163 272.818 21.6819C272.818 25.4474 269.766 28.5 266 28.5C262.234 28.5 259.182 25.4474 259.182 21.6819ZM266 17.5909C266.377 17.5909 266.682 17.8962 266.682 18.2727V21.3171L268.424 22.4781C268.737 22.687 268.822 23.1103 268.613 23.4236C268.404 23.737 267.981 23.8217 267.667 23.6128L265.925 22.4517C265.739 22.3271 265.585 22.1582 265.479 21.9603C265.374 21.7624 265.318 21.5415 265.318 21.3171V18.2727C265.318 17.8962 265.623 17.5909 266 17.5909Z" fill="white"/>
<path fill-rule="evenodd" clip-rule="evenodd" d="M286.699 14.0694C286.927 13.958 287.2 13.9821 287.404 14.1315L291.731 17.3027C291.903 17.4288 292.003 17.6277 292 17.8378C291.997 18.048 291.891 18.2441 291.716 18.3656L287.91 21L291.716 23.6344C291.891 23.7559 291.997 23.952 292 24.1622C292.003 24.3723 291.903 24.5712 291.731 24.6973L287.404 27.8685C287.2 28.0179 286.927 28.042 286.699 27.9306C286.471 27.8191 286.327 27.5914 286.327 27.3423V22.0957L283.062 24.3555C282.759 24.5655 282.339 24.4954 282.124 24.199C281.909 23.9025 281.981 23.492 282.284 23.2821L285.581 21L282.284 18.7179C281.981 18.508 281.909 18.0975 282.124 17.801C282.339 17.5046 282.759 17.4345 283.062 17.6445L286.327 19.9043V14.6577C286.327 14.4086 286.471 14.1809 286.699 14.0694ZM287.673 22.4481L290.184 24.1863L287.673 26.0268V22.4481ZM287.673 19.5519V15.9732L290.184 17.8137L287.673 19.5519Z" fill="white"/>
<path fill-rule="evenodd" clip-rule="evenodd" d="M304.474 17.2325C305.562 16.7804 306.729 16.5484 307.908 16.55L307.909 16.55C310.388 16.55 312.63 17.5563 314.251 19.1847C314.563 19.4978 315.069 19.4988 315.382 19.1871C315.696 18.8753 315.697 18.3688 315.385 18.0557C313.475 16.1382 310.831 14.9501 307.909 14.95L307.91 14.95L307.909 15.75V14.95L307.909 14.95C306.52 14.9482 305.144 15.2218 303.86 15.7549C302.577 16.2881 301.412 17.0704 300.432 18.0564C300.121 18.3699 300.123 18.8764 300.436 19.1878C300.75 19.4992 301.256 19.4975 301.568 19.184C302.398 18.3479 303.386 17.6846 304.474 17.2325ZM305.572 20.0262C306.31 19.711 307.105 19.549 307.908 19.55H307.91C308.713 19.549 309.507 19.711 310.246 20.0262C310.984 20.3414 311.651 20.8033 312.205 21.3838C312.511 21.7033 313.017 21.7149 313.337 21.4097C313.656 21.1045 313.668 20.5981 313.362 20.2786C312.658 19.5415 311.812 18.955 310.874 18.5547C309.937 18.1546 308.928 17.9488 307.909 17.95L307.91 17.95L307.909 18.75L307.908 17.95L307.909 17.95C306.89 17.9488 305.881 18.1546 304.944 18.5547C304.006 18.955 303.16 19.5415 302.455 20.2786C302.15 20.5981 302.162 21.1045 302.481 21.4097C302.801 21.7149 303.307 21.7033 303.612 21.3838C304.167 20.8033 304.834 20.3414 305.572 20.0262ZM306.691 22.8122C307.073 22.6389 307.488 22.5495 307.908 22.55L307.909 22.55C308.793 22.55 309.586 22.9383 310.128 23.5556C310.419 23.8877 310.924 23.9207 311.257 23.6293C311.589 23.3379 311.622 22.8325 311.33 22.5003C310.498 21.5518 309.273 20.9501 307.909 20.95L307.91 20.95L307.909 21.75V20.95H307.909C307.261 20.9493 306.621 21.0874 306.03 21.3549C305.44 21.6225 304.914 22.0133 304.487 22.5013C304.196 22.8338 304.23 23.3392 304.562 23.6301C304.895 23.921 305.4 23.8872 305.691 23.5547C305.968 23.2387 306.308 22.9855 306.691 22.8122ZM309 25.2C309 25.7522 308.552 26.2 308 26.2C307.448 26.2 307 25.7522 307 25.2C307 24.6477 307.448 24.2 308 24.2C308.552 24.2 309 24.6477 309 25.2Z" fill="white"/>
<path fill-rule="evenodd" clip-rule="evenodd" d="M334.9 16.0001C334.9 15.503 334.497 15.1001 334 15.1001C333.503 15.1001 333.1 15.503 333.1 16.0001V26.0001C333.1 26.4972 333.503 26.9001 334 26.9001C334.497 26.9001 334.9 26.4972 334.9 26.0001V16.0001ZM328.2 21.2999C328.2 20.8028 327.797 20.3999 327.3 20.3999C326.803 20.3999 326.4 20.8028 326.4 21.2999V25.9999C326.4 26.497 326.803 26.8999 327.3 26.8999C327.797 26.8999 328.2 26.497 328.2 25.9999V21.2999ZM324 23.1001C324.497 23.1001 324.9 23.503 324.9 24.0001V26.0001C324.9 26.4972 324.497 26.9001 324 26.9001C323.503 26.9001 323.1 26.4972 323.1 26.0001V24.0001C323.1 23.503 323.503 23.1001 324 23.1001ZM331.6 18.7C331.6 18.203 331.197 17.8 330.7 17.8C330.203 17.8 329.8 18.203 329.8 18.7V26C329.8 26.4971 330.203 26.9 330.7 26.9C331.197 26.9 331.6 26.4971 331.6 26V18.7Z" fill="white"/>
<path fill-rule="evenodd" clip-rule="evenodd" d="M343.159 16.409C343.581 15.9871 344.153 15.75 344.75 15.75H353.75C354.347 15.75 354.919 15.9871 355.341 16.409C355.763 16.831 356 17.4033 356 18V18.1287C356.313 18.2395 356.601 18.4195 356.841 18.659C357.263 19.081 357.5 19.6533 357.5 20.25V21.75C357.5 22.3467 357.263 22.919 356.841 23.341C356.601 23.5805 356.313 23.7605 356 23.8713V24C356 24.5967 355.763 25.169 355.341 25.591C354.919 26.0129 354.347 26.25 353.75 26.25H344.75C344.153 26.25 343.581 26.0129 343.159 25.591C342.737 25.169 342.5 24.5967 342.5 24V18C342.5 17.4033 342.737 16.831 343.159 16.409ZM344.75 17.25C344.551 17.25 344.36 17.329 344.22 17.4697C344.079 17.6103 344 17.8011 344 18V24C344 24.1989 344.079 24.3897 344.22 24.5303C344.36 24.671 344.551 24.75 344.75 24.75H353.75C353.949 24.75 354.14 24.671 354.28 24.5303C354.421 24.3897 354.5 24.1989 354.5 24V23.25C354.5 22.8358 354.836 22.5 355.25 22.5C355.449 22.5 355.64 22.421 355.78 22.2803C355.921 22.1397 356 21.9489 356 21.75V20.25C356 20.0511 355.921 19.8603 355.78 19.7197C355.64 19.579 355.449 19.5 355.25 19.5C354.836 19.5 354.5 19.1642 354.5 18.75V18C354.5 17.8011 354.421 17.6103 354.28 17.4697C354.14 17.329 353.949 17.25 353.75 17.25H344.75ZM346.25 18.75C346.664 18.75 347 19.0858 347 19.5V22.5C347 22.9142 346.664 23.25 346.25 23.25C345.836 23.25 345.5 22.9142 345.5 22.5V19.5C345.5 19.0858 345.836 18.75 346.25 18.75ZM349.25 18.75C349.664 18.75 350 19.0858 350 19.5V22.5C350 22.9142 349.664 23.25 349.25 23.25C348.836 23.25 348.5 22.9142 348.5 22.5V19.5C348.5 19.0858 348.836 18.75 349.25 18.75ZM352.25 18.75C352.664 18.75 353 19.0858 353 19.5V22.5C353 22.9142 352.664 23.25 352.25 23.25C351.836 23.25 351.5 22.9142 351.5 22.5V19.5C351.5 19.0858 351.836 18.75 352.25 18.75Z" fill="white"/>
</svg>
